Genre:Action/Adventure/Thriller 
Language:English
IMDb:http://www.imdb.com/title/tt0429493/ 
Source Video:Relizlab.Thanks
Source Audio:TA/imagine.Thanks
Encoder: Tony2
.................................................
General
Complete name : The.A.Team.2010.TS.XviD.FEEL-FREE
Format : AVI
Format/Info : Audio Video Interleave
Format profile : OpenDML
File size : 1.01 GiB
.................................................
Video
ID : 0
Format : MPEG-4 Visual
Codec ID : DIV3
Codec ID/Hint : DivX 3 Low
Duration : 4h 32mn
Bit rate : 474 Kbps
Width : 704 pixels
Height : 304 pixels
Display aspect ratio : 2.35:1
Frame rate : 25.000 fps
Resolution : 24 bits
Bits/(Pixel*Frame) : 0.089
Stream size : 924 MiB (89%)
..................................................
Audio
ID : 1
Format : MPEG Audio
Format version : Version 1
Format profile : Layer 3
Format settings, Mode : Joint stereo / MS Stereo
Codec ID : 55
Codec ID/Hint : MP3
Duration : 1h 47mn
Bit rate mode : Constant
Bit rate : 128 Kbps
Channel(s) : 2 channels
Sampling rate : 44.1 KHz
Resolution : 16 bits
Stream size : 98.5 MiB (10%)
Alignment : Aligned on interleaves
Interleave, duration : 26 ms (0.65 video frame)
Interleave, preload duration : 26 ms
Writing library : LAME3.97
.................................................
Plot: 
A group of Iraq War veterans looks to clear their name with the U.S. military, who suspect the four men of committing a crime for which they were framed
...................................................
Screenshots
 
http://postimg.com/image/17000/16218.jpg 
http://postimg.com/image/17000/16219.jpg

......................................................
......................................................